<?xml version="1.0" encoding="UTF-8"?>
<svg version="1.1" xmlns="http://www.w3.org/2000/svg" width="1254" height="1254">
<path d="M0 0 C413.82 0 827.64 0 1254 0 C1254 413.82 1254 827.64 1254 1254 C840.18 1254 426.36 1254 0 1254 C0 840.18 0 426.36 0 0 Z " fill="#F7EDE3" transform="translate(0,0)"/>
<path d="M0 0 C0.99128906 0.35191406 1.98257812 0.70382813 3.00390625 1.06640625 C21.90679744 8.38131817 35.55812913 21.66063351 44.33984375 39.76171875 C45.33449092 42.15262534 46.20077365 44.53740915 47 47 C47.28488281 47.85464844 47.56976562 48.70929688 47.86328125 49.58984375 C53.75989631 68.17396231 51.91788194 88.61435003 43 106 C35.69647783 118.66406458 26.43407565 128.82289735 14.43359375 137.0625 C11.8957113 139.08302921 11.13670258 140.03251639 10 143 C9.22168061 151.87472982 10.31511968 160.86986402 11.3125 169.6875 C11.43044922 170.81349609 11.54839844 171.93949219 11.66992188 173.09960938 C13.37714625 188.67474863 16.29777307 204.04921692 19.36962891 219.40405273 C19.87381863 221.93157775 20.36869783 224.46081442 20.86328125 226.99023438 C25.00702161 249.28526751 25.00702161 249.28526751 33 270.375 C33.31710937 271.05820312 33.63421875 271.74140625 33.9609375 272.4453125 C37.29966705 279.3364503 42.77521101 285.15279252 50 288 C52.71436463 288.22522206 55.28674235 288.33238377 58 288.3125 C58.78818115 288.30831055 59.5763623 288.30412109 60.38842773 288.29980469 C66.34578486 288.18966769 72.17092283 287.62319107 78.0625 286.75 C78.80306641 286.64083252 79.54363281 286.53166504 80.30664062 286.41918945 C94.52294967 284.10888774 108.28180225 280.25198723 121.875 275.5625 C122.99355377 275.17924057 122.99355377 275.17924057 124.13470459 274.78823853 C134.73386752 271.13185522 145.01349099 267.03351332 155.125 262.1875 C156.20120605 261.67324463 157.27741211 261.15898926 158.38623047 260.62915039 C165.78029357 256.94628145 173.22695962 253.01929005 178.0078125 246.08984375 C179.24975182 242.22222958 179.59879621 238.59759017 179.875 234.5625 C181.77340073 213.94346605 191.42876638 195.82659755 207.1875 182.3125 C221.5425477 171.06670314 237.87679386 163.3544616 256.3125 163.625 C257.31579346 163.63442627 258.31908691 163.64385254 259.3527832 163.65356445 C280.6824519 164.08493556 298.81030546 172.10194759 314 187 C314.77472656 187.73863281 315.54945313 188.47726562 316.34765625 189.23828125 C330.87413992 204.0637663 336.3125 224.58614691 336.3125 244.81347656 C336.00215489 265.23277411 327.02917567 283.52545367 313 298 C312.28199219 298.74636719 311.56398438 299.49273438 310.82421875 300.26171875 C301.0957882 309.58708815 289.07069417 315.95521796 276 319 C274.66775391 319.33451172 274.66775391 319.33451172 273.30859375 319.67578125 C254.7919184 323.73234053 234.04432587 320.86167806 217.8046875 311.07421875 C214.81063595 309.12109667 211.89335946 307.09876522 209 305 C208.40445313 304.57976562 207.80890625 304.15953125 207.1953125 303.7265625 C203.06016986 300.57491325 200.16159457 296.46735256 197.125 292.3046875 C193.57301649 288.45235244 190.33749091 287.17605748 185.171875 286.49609375 C139.81679923 285.06623638 79.10773426 311.13863609 46.15625 342.00390625 C44.34708265 343.67869704 42.50697511 345.17869738 40.5625 346.6875 C20.93451173 363.44535791 8.15564504 391.8322672 5 417 C4.72039598 421.29639467 4.66511667 425.5703657 4.6875 429.875 C4.69313965 431.01759277 4.6987793 432.16018555 4.70458984 433.33740234 C4.82384018 441.62707156 5.44812857 449.06406649 8 457 C8.19335938 457.61955566 8.38671875 458.23911133 8.5859375 458.87744141 C13.96661311 475.76263253 23.10516189 489.03153979 35 502 C35.59167969 502.67417969 36.18335938 503.34835937 36.79296875 504.04296875 C46.16698497 514.18811226 58.91869507 521.5773859 71 528 C72.01835938 528.54398438 73.03671875 529.08796875 74.0859375 529.6484375 C81.19503126 533.32426813 88.46338721 536.32459414 96 539 C96.78084961 539.28020996 97.56169922 539.56041992 98.36621094 539.84912109 C108.66789948 543.51652222 118.74091917 546.6840732 129.5546875 548.39453125 C133 549 133 549 136.4609375 550.00390625 C153.45551264 554.7871476 179.14346335 556.31136365 195.625 549.375 C199.85511534 546.90060995 201.68586666 543.17990334 204 539 C215.27036417 520.80816219 231.39134736 508.68603275 252 503 C255.03469774 502.32842795 257.89603019 502.07437627 261 502 C262.09570312 501.94972656 263.19140625 501.89945313 264.3203125 501.84765625 C276.96317389 501.51772772 289.72827911 502.8798078 301 509 C301.721875 509.35835937 302.44375 509.71671875 303.1875 510.0859375 C309.40854729 513.30446544 314.70612134 517.43844122 320 522 C320.6290625 522.53238281 321.258125 523.06476562 321.90625 523.61328125 C333.10268052 533.86819375 341.20482905 550.71697174 342.18896484 565.91894531 C342.26769196 569.11516601 342.27297283 572.30294768 342.25 575.5 C342.25773438 576.57636719 342.26546875 577.65273438 342.2734375 578.76171875 C342.22752588 597.60844064 334.63432412 615.84800915 321.6328125 629.5546875 C312.55636835 637.984738 302.67583855 643.84767713 291 648 C290.10796875 648.33902344 289.2159375 648.67804687 288.296875 649.02734375 C269.43790285 655.01038024 249.36199537 651.33846807 232.125 642.75 C225.97257329 639.24738083 221.02611798 634.94591397 216 630 C215.37609375 629.45988281 214.7521875 628.91976562 214.109375 628.36328125 C204.57470285 619.83790998 198.88948986 606.36774079 196.125 594.125 C194.66276461 590.06323504 192.68549758 588.05385981 189 586 C178.03095478 581.4117487 166.35399748 579.26871612 154.63671875 577.69140625 C142.27762839 575.97398953 130.02151075 573.74885152 117.75 571.5 C115.58079679 571.10509711 113.4115261 570.71056471 111.2421875 570.31640625 C108.07807517 569.74140665 104.91400199 569.16620438 101.75016785 568.5896759 C68.18585131 560.00078571 68.18585131 560.00078571 35.3125 564.25 C25.19121023 572.30527712 19.31256759 584.36086307 13.625 595.6875 C13.07656937 596.76756317 13.07656937 596.76756317 12.51705933 597.8694458 C-11.04687604 640.50787602 -11.04687604 640.50787602 -20 687 C-18.36702059 689.95202627 -18.36702059 689.95202627 -16 693 C-2.94527393 711.56274748 2.05924346 731.85509671 -1.38232422 754.51757812 C-5.25996191 772.84822905 -15.92873533 789.81661847 -31 801 C-44.37783735 809.64877978 -56.6684763 814.17773469 -72.625 814.1875 C-73.65496094 814.19974609 -74.68492187 814.21199219 -75.74609375 814.22460938 C-94.95695248 814.26085628 -111.55326066 807.49636788 -125.734375 794.4375 C-142.04062675 776.89422226 -148.1828744 757.79747783 -147.41015625 734.0625 C-146.36938522 715.13728198 -136.70054452 698.46622602 -123.32421875 685.3828125 C-109.61709215 673.17809084 -92.30433233 665.57063469 -73.8125 666.11328125 C-72.14574219 666.1587207 -72.14574219 666.1587207 -70.4453125 666.20507812 C-68.14774627 666.27671426 -65.85070624 666.3678798 -63.5546875 666.47851562 C-56.92207324 666.62086291 -52.67979476 666.21213885 -47.63232422 661.71411133 C-32.71346163 646.04774366 -25.0079727 625.02385332 -18 605 C-17.566875 603.79601562 -17.13375 602.59203125 -16.6875 601.3515625 C-15.6469413 598.25427449 -14.78906915 595.17095695 -14 592 C-13.73147217 590.95779297 -13.73147217 590.95779297 -13.45751953 589.89453125 C-10.34380765 577.34508996 -9.60286897 564.99278007 -9.5625 552.125 C-9.55641724 551.39400085 -9.55033447 550.66300171 -9.54406738 549.90985107 C-9.4680836 535.95899369 -11.11154543 522.47305141 -16.1875 509.375 C-16.48938232 508.582146 -16.79126465 507.78929199 -17.10229492 506.97241211 C-26.27211944 483.6564702 -42.02307879 466.93667757 -64.84375 456.89941406 C-88.0505439 447.21940628 -114.53234308 444.0331273 -139 451 C-139.63518555 451.17692383 -140.27037109 451.35384766 -140.92480469 451.53613281 C-175.45925817 461.27575705 -206.78693549 479.59801995 -233 504 C-234.28802136 505.10841679 -235.57959201 506.21272505 -236.875 507.3125 C-246.14706745 515.42321759 -254.4570073 524.26491015 -262 534 C-262.79664063 535.01449219 -263.59328125 536.02898438 -264.4140625 537.07421875 C-272.29705754 547.30670579 -276.37426618 553.72075357 -275 567 C-274.67 568.0621875 -274.34 569.124375 -274 570.21875 C-268.91245149 589.45604282 -274.20270016 610.39113393 -283.89697266 627.20605469 C-286.78928771 631.91006775 -290.21128018 636.00079575 -294 640 C-294.72445312 640.77730469 -295.44890625 641.55460938 -296.1953125 642.35546875 C-309.4719536 655.42958481 -327.6008844 662.26294526 -346.0625 662.4375 C-361.03201653 662.18399557 -373.1228602 658.32511997 -386 651 C-386.85335937 650.52691406 -387.70671875 650.05382812 -388.5859375 649.56640625 C-404.01094835 640.18332203 -415.02754647 624.13125516 -419.58300781 606.77929688 C-424.3248577 584.65066408 -420.95686718 564.03586347 -409 545 C-397.86021084 528.67059019 -382.00879507 517.9483357 -363 513 C-345.35511052 510.09994886 -328.40208621 511.34766172 -312.72973633 520.30664062 C-307.87579815 522.9783278 -304.54920207 523.53810444 -299 523 C-288.2248466 519.79815659 -280.06363733 511.42605755 -272 504 C-270.91068688 503.00853128 -269.82086966 502.01761602 -268.73046875 501.02734375 C-266.726679 499.20219749 -264.73129308 497.36847724 -262.7421875 495.52734375 C-260.28650479 493.26405783 -257.80637407 491.03347539 -255.3125 488.8125 C-251.46278113 485.36443719 -247.70079432 481.83321392 -243.95214844 478.27636719 C-236.84658101 471.53631897 -229.63277509 465.00007522 -222.15234375 458.6796875 C-218.44351957 455.54430028 -214.84422169 452.29260735 -211.24609375 449.03125 C-209.07388389 447.06681673 -206.8872669 445.12100089 -204.6875 443.1875 C-204.04683594 442.62289063 -203.40617188 442.05828125 -202.74609375 441.4765625 C-201 440 -201 440 -198.25 438.0625 C-193.57777957 433.77963127 -191.75709456 428.90734548 -191.375 422.625 C-191.83474038 411.858177 -200.3510714 403.79709523 -207 396 C-207.90281753 394.93399482 -208.80514782 393.86757684 -209.70703125 392.80078125 C-211.10757168 391.14488143 -212.50881841 389.48961813 -213.9128418 387.83666992 C-217.56279108 383.53605813 -221.13616542 379.17688557 -224.6953125 374.80078125 C-226.76706887 372.28307054 -228.86801687 369.79552278 -230.98486328 367.31591797 C-235.79783153 361.67796605 -240.45359851 355.94373602 -245.01074219 350.09716797 C-248.54546624 345.56427024 -252.14851728 341.09428039 -255.81640625 336.66796875 C-257.33078505 334.81766335 -258.81600312 332.94325496 -260.27734375 331.05078125 C-266.39870591 322.96520233 -266.39870591 322.96520233 -275 318 C-279.1755894 317.75060473 -282.73808779 318.49561293 -286.609375 320.04296875 C-291.3114724 321.37017366 -295.76307432 321.29814603 -300.625 321.25 C-301.60976318 321.24250732 -302.59452637 321.23501465 -303.60913086 321.22729492 C-326.90928286 320.88297665 -345.04099486 311.95900514 -361.41015625 295.58984375 C-377.65436536 278.47783048 -381.47640737 258.28455127 -381.2109375 235.546875 C-381.04296706 229.32989501 -380.19608368 223.8341242 -378 218 C-377.58621094 216.865625 -377.17242187 215.73125 -376.74609375 214.5625 C-368.23523483 193.04185401 -351.53385981 177.91749113 -330.75 168.5625 C-314.12056616 161.44429112 -292.84486469 161.52512254 -276 168 C-265.01625448 172.5863387 -255.16706553 178.22040456 -247 187 C-246.40574219 187.60070312 -245.81148437 188.20140625 -245.19921875 188.8203125 C-229.95333886 204.86549095 -224.24697865 224.99581871 -224.59765625 246.72265625 C-225.17931114 260.1876564 -229.71614973 273.0764736 -236.45898438 284.67749023 C-239.83996984 290.68236428 -239.63762026 295.43396725 -238.0390625 301.8671875 C-237.58622884 303.20951586 -237.11392658 304.54539308 -236.625 305.875 C-236.36170898 306.60114502 -236.09841797 307.32729004 -235.82714844 308.07543945 C-220.6793553 347.94726587 -186.68685936 381.34380458 -148.25 398.6875 C-123.00726193 409.62979303 -93.01872585 415.3416187 -66.4375 405.8125 C-44.58686154 396.78265784 -29.41024244 380.42252417 -20 359 C-17.04846726 351.76724307 -14.47404538 344.4075486 -12 337 C-11.5875 335.77539062 -11.175 334.55078125 -10.75 333.2890625 C-4.31070831 312.51228541 -2.76660172 290.97725794 -2.75 269.375 C-2.74899292 268.4657074 -2.74798584 267.55641479 -2.74694824 266.61956787 C-2.75797153 251.87203251 -3.47813563 237.56030266 -6 223 C-6.12858398 222.20754883 -6.25716797 221.41509766 -6.38964844 220.59863281 C-9.6260887 201.12234473 -16.07606698 181.90880935 -23.25 163.5625 C-23.55454102 162.77109619 -23.85908203 161.97969238 -24.17285156 161.16430664 C-26.44777221 155.57823531 -28.66732292 150.46749306 -34.42236328 147.93334961 C-37.4064868 146.92634338 -40.40720173 146.04524153 -43.4375 145.1875 C-53.57407044 142.06411464 -61.6080734 138.51934794 -70 132 C-70.83273437 131.37609375 -71.66546875 130.7521875 -72.5234375 130.109375 C-86.34323848 118.88373461 -95.84448649 99.5493135 -98 82 C-99.76354407 61.46570574 -94.79414857 41.99444323 -82 25.5625 C-80.68415345 24.02651183 -79.35211489 22.50415994 -78 21 C-77.22269531 20.08347656 -77.22269531 20.08347656 -76.4296875 19.1484375 C-58.23130843 -0.87892439 -25.33310726 -9.05013444 0 0 Z " fill="#131313" transform="translate(662,221)"/>
<path d="M0 0 C1.52474629 1.17695292 3.02715208 2.383715 4.5 3.625 C5.13292969 4.14707031 5.76585937 4.66914063 6.41796875 5.20703125 C16.05598036 13.95145238 20.88051518 25.98047168 21.69921875 38.7265625 C22.18224766 53.7504272 17.29437708 66.87621856 7.1796875 78.0390625 C-4.60896183 89.1697407 -18.02037948 92.04099349 -33.5625 91.8359375 C-45.70513141 91.46784126 -55.70834794 85.76545329 -64.61328125 77.69140625 C-68.20382701 73.75890375 -70.80732005 69.19527841 -73.5 64.625 C-74.16 63.635 -74.82 62.645 -75.5 61.625 C-80.77454912 50.18068011 -79.99269244 35.21837185 -75.828125 23.58984375 C-69.61109788 9.71124498 -59.45096487 -0.62112306 -45.1875 -6.25 C-29.60028076 -11.00542282 -13.57325424 -9.09674981 0 0 Z " fill="#F5ECE2" transform="translate(387.5,421.375)"/>
<path d="M0 0 C11.30680734 7.77634618 19.64167529 18.10909754 23.27734375 31.515625 C25.65887967 45.04373108 24.17707925 58.13335629 16.6875 69.7265625 C10.62444814 78.13788609 4.09740397 84.34122079 -5.09765625 89.203125 C-6.30615234 89.85474609 -6.30615234 89.85474609 -7.5390625 90.51953125 C-18.94908192 95.64421916 -34.64728132 94.81359853 -46.20703125 90.58984375 C-58.76353869 84.56611383 -67.67132785 74.90662248 -73.09765625 62.203125 C-73.45085938 61.40390625 -73.8040625 60.6046875 -74.16796875 59.78125 C-78.43895769 47.93733109 -77.06587233 33.55695998 -72.09765625 22.203125 C-65.23715201 9.14439293 -55.2855651 0.14678565 -41.47265625 -5.234375 C-27.35513661 -9.43493065 -12.67633455 -7.35323316 0 0 Z " fill="#F5ECE2" transform="translate(946.09765625,419.796875)"/>
<path d="M0 0 C9.1225003 7.27649336 16.1355533 16.84693171 17.98828125 28.5859375 C19.48729771 43.75881804 16.59177799 56.41350539 6.98828125 68.5859375 C6.53453125 69.18792969 6.08078125 69.78992188 5.61328125 70.41015625 C-0.32126011 77.28742424 -11.18067285 82.75764339 -20.01171875 84.5859375 C-34.42140027 85.60377575 -46.59107416 84.19257896 -58.0234375 74.453125 C-67.33176201 65.7117122 -74.18710903 54.81964866 -75.34765625 41.82421875 C-75.49256089 27.26130274 -71.90219897 15.51381154 -62.05078125 4.3671875 C-44.50695567 -12.58966994 -19.68746496 -14.18073345 0 0 Z " fill="#F5ECE2" transform="translate(667.01171875,255.4140625)"/>
<path d="M0 0 C9.61090461 7.75072952 16.17151069 16.73939998 18.74609375 28.91015625 C20.04404462 44.48556672 16.83971786 57.44387514 6.93359375 69.78515625 C-1.57443621 79.00984533 -13.36472109 84.56913596 -25.87597656 85.13061523 C-37.88378102 85.30235806 -47.43601923 81.90326116 -56.94140625 74.66015625 C-57.97265625 73.91765625 -59.00390625 73.17515625 -60.06640625 72.41015625 C-69.65791258 63.23567193 -74.85507519 51.69217739 -75.31640625 38.47265625 C-75.06834554 25.0773781 -69.75349374 13.44586986 -60.56640625 3.84765625 C-43.44441978 -12.3867356 -19.24157961 -13.80450941 0 0 Z " fill="#F5ECE2" transform="translate(342.94140625,770.33984375)"/>
<path d="M0 0 C9.08734099 7.69375515 15.56141923 17.30212554 17.3359375 29.26464844 C18.29784448 42.11058057 16.62688693 53.33438593 8.84375 63.9375 C6.66954896 66.43932037 4.41401215 68.73099918 2 71 C1.15308594 71.87398437 1.15308594 71.87398437 0.2890625 72.765625 C-8.92243682 81.66258532 -21.27398938 83.38875353 -33.47265625 83.2109375 C-46.63090121 82.77349944 -56.81223054 76.04381555 -65.734375 66.71484375 C-75.27849379 55.27835659 -76.90537137 43.35660308 -76 29 C-73.93789284 16.26345576 -66.56011049 5.71029622 -56.4296875 -1.94140625 C-38.68991994 -14.04589152 -17.14150716 -12.64537413 0 0 Z " fill="#F5ECE2" transform="translate(960,761)"/>
<path d="M0 0 C10.59383301 7.14460697 18.29035674 16.90082254 21.54711914 29.40258789 C23.71111882 44.07921935 21.35736201 56.91490188 12.51196289 69.09399414 C11.7346582 70.07625977 11.7346582 70.07625977 10.94165039 71.07836914 C10.46469727 71.69196289 9.98774414 72.30555664 9.49633789 72.93774414 C2.05076447 81.39352099 -10.19118849 86.36836514 -21.25366211 87.25415039 C-33.526942 87.66040878 -43.94015542 83.85913376 -53.24584961 75.89086914 C-63.33941864 66.27266443 -68.94109051 55.74118845 -69.52880859 41.66259766 C-69.68970782 29.6297289 -66.25127414 20.71310226 -59.05834961 11.07836914 C-58.33647461 10.04711914 -57.61459961 9.01586914 -56.87084961 7.95336914 C-43.32793989 -7.73019405 -17.16715913 -10.78762128 0 0 Z " fill="#F5ECE2" transform="translate(612.058349609375,920.921630859375)"/>
<path d="M0 0 C0.15082031 0.60585938 0.30164063 1.21171875 0.45703125 1.8359375 C0.85813713 3.4345897 1.26991216 5.03057372 1.6875 6.625 C1.8421875 7.800625 1.8421875 7.800625 2 9 C1.34 9.66 0.68 10.32 0 11 C-0.37004294 13.22658154 -0.37004294 13.22658154 -0.4140625 15.7890625 C-0.45273437 16.73007812 -0.49140625 17.67109375 -0.53125 18.640625 C-0.5621875 19.62546875 -0.593125 20.6103125 -0.625 21.625 C-0.66367187 22.61757813 -0.70234375 23.61015625 -0.7421875 24.6328125 C-0.8366314 27.08835385 -0.92219875 29.5438841 -1 32 C-0.34 32.33 0.32 32.66 1 33 C0.67 34.98 0.34 36.96 0 39 C-0.33 39 -0.66 39 -1 39 C-2.35978799 33.07864892 -2.18414578 27.23515935 -2.1875 21.1875 C-2.19974609 20.03701172 -2.21199219 18.88652344 -2.22460938 17.70117188 C-2.23538072 11.43583814 -1.86452187 5.99152679 0 0 Z " fill="#44413E" transform="translate(517,941)"/>
<path d="M0 0 C5.66129431 4.69766975 10.85228904 9.74723372 16 15 C15.34 15.66 14.68 16.32 14 17 C11.65453302 14.74141867 9.32587973 12.46623352 7 10.1875 C6.33226562 9.54490234 5.66453125 8.90230469 4.9765625 8.24023438 C4.34492188 7.61826172 3.71328125 6.99628906 3.0625 6.35546875 C2.47597656 5.78465576 1.88945312 5.21384277 1.28515625 4.62573242 C0 3 0 3 0 0 Z " fill="#1E1D1B" transform="translate(456,578)"/>
<path d="M0 0 C0.33 0 0.66 0 1 0 C1.13277344 1.09699219 1.26554688 2.19398438 1.40234375 3.32421875 C1.58062985 4.77865801 1.7590208 6.23308442 1.9375 7.6875 C2.02451172 8.40873047 2.11152344 9.12996094 2.20117188 9.87304688 C2.66313805 13.62010584 3.19167679 17.30792911 4 21 C3.01 20.67 2.02 20.34 1 20 C-1.70602378 14.28728313 -2.55724806 8.24117822 -2 2 C-1.34 1.34 -0.68 0.68 0 0 Z " fill="#31302D" transform="translate(542,957)"/>
<path d="M0 0 C1.15242188 0.00902344 2.30484375 0.01804687 3.4921875 0.02734375 C4.36101562 0.03894531 5.22984375 0.05054688 6.125 0.0625 C6.125 0.7225 6.125 1.3825 6.125 2.0625 C0.845 2.0625 -4.435 2.0625 -9.875 2.0625 C-9.875 2.7225 -9.875 3.3825 -9.875 4.0625 C-12.845 3.5675 -12.845 3.5675 -15.875 3.0625 C-10.90040629 -0.25389581 -5.85047992 -0.05969877 0 0 Z " fill="#D9D5D0" transform="translate(316.875,760.9375)"/>
<path d="M0 0 C0.66 0.33 1.32 0.66 2 1 C-0.97 4.3 -3.94 7.6 -7 11 C-7.99 10.67 -8.98 10.34 -10 10 C-6.7 6.7 -3.4 3.4 0 0 Z M-12 11 C-11.34 11.33 -10.68 11.66 -10 12 C-11.32 13.32 -12.64 14.64 -14 16 C-14.66 15.67 -15.32 15.34 -16 15 C-14.68 13.68 -13.36 12.36 -12 11 Z " fill="#252423" transform="translate(430,688)"/>
<path d="M0 0 C20.0631769 -0.24368231 20.0631769 -0.24368231 26 1 C26.33 1.66 26.66 2.32 27 3 C21.39 3 15.78 3 10 3 C10 2.67 10 2.34 10 2 C6.7 1.67 3.4 1.34 0 1 C0 0.67 0 0.34 0 0 Z " fill="#4F4E4A" transform="translate(582,887)"/>
<path d="M0 0 C0.33 0 0.66 0 1 0 C1.33 3.63 1.66 7.26 2 11 C1.01 11.495 1.01 11.495 0 12 C-0.46651207 14.12576782 -0.46651207 14.12576782 -0.625 16.5625 C-0.69976562 17.38878906 -0.77453125 18.21507812 -0.8515625 19.06640625 C-0.90054687 19.70449219 -0.94953125 20.34257813 -1 21 C-1.33 21 -1.66 21 -2 21 C-2.20177072 13.64657821 -2.21211746 7.05112439 0 0 Z " fill="#BEB8AF" transform="translate(270,794)"/>
<path d="M0 0 C0.66 0.99 1.32 1.98 2 3 C0.7260411 5.03833424 -0.61061923 7.03852126 -2 9 C-2.66 9 -3.32 9 -4 9 C-4.66 10.98 -5.32 12.96 -6 15 C-6.66 15 -7.32 15 -8 15 C-6.51194289 9.19657726 -3.40902445 4.82409121 0 0 Z " fill="#242322" transform="translate(530,916)"/>
<path d="M0 0 C0.33 0.99 0.66 1.98 1 3 C-0.29296875 4.97265625 -0.29296875 4.97265625 -2.1875 7.0625 C-2.79980469 7.75472656 -3.41210938 8.44695312 -4.04296875 9.16015625 C-5.97498042 10.9764786 -7.51537601 12.08948562 -10 13 C-10.66 12.67 -11.32 12.34 -12 12 C-11.30132813 11.38511719 -10.60265625 10.77023437 -9.8828125 10.13671875 C-8.51769531 8.92435547 -8.51769531 8.92435547 -7.125 7.6875 C-6.22007812 6.88699219 -5.31515625 6.08648437 -4.3828125 5.26171875 C-1.86787689 3.04188943 -1.86787689 3.04188943 0 0 Z " fill="#21211F" transform="translate(960,492)"/>
<path d="M0 0 C0 3 0 3 -2.1875 5.48046875 C-3.115625 6.37378906 -4.04375 7.26710937 -5 8.1875 C-5.928125 9.08855469 -6.85625 9.98960937 -7.8125 10.91796875 C-8.534375 11.60503906 -9.25625 12.29210937 -10 13 C-10.66 12.34 -11.32 11.68 -12 11 C-10.37807179 9.35113941 -8.75236228 7.7059976 -7.125 6.0625 C-6.22007812 5.14597656 -5.31515625 4.22945312 -4.3828125 3.28515625 C-2 1 -2 1 0 0 Z " fill="#20201F" transform="translate(593,234)"/>
<path d="M0 0 C5.81261371 1.73982995 10.83169994 3.8110489 16 7 C12.3986159 8.20046137 11.85032966 7.73287623 8.5625 6.125 C5.7150714 4.74705655 3.09839136 3.66343688 0 3 C0 2.01 0 1.02 0 0 Z " fill="#EDE7DE" transform="translate(327,763)"/>
<path d="M0 0 C0.99 0.33 1.98 0.66 3 1 C-0.16952847 4.26008643 -3.39937989 7.22237877 -7 10 C-7.66 9.34 -8.32 8.68 -9 8 C-6.03 5.36 -3.06 2.72 0 0 Z " fill="#1F1F1E" transform="translate(392,723)"/>
<path d="M0 0 C6.20970773 -0.33266291 10.28264895 0.54970669 16 3 C12.23331402 4.3805087 9.55210827 3.59568159 5.75 2.5625 C4.13351562 2.13130859 4.13351562 2.13130859 2.484375 1.69140625 C1.25460937 1.34916016 1.25460937 1.34916016 0 1 C0 0.67 0 0.34 0 0 Z " fill="#D0CCC4" transform="translate(772,765)"/>
<path d="M0 0 C0.66 0.66 1.32 1.32 2 2 C1.6730244 4.61580479 1.17960932 6.64078137 0 9 C-0.66 9 -1.32 9 -2 9 C-2 9.66 -2 10.32 -2 11 C-2.66 10.67 -3.32 10.34 -4 10 C-2.68 6.7 -1.36 3.4 0 0 Z " fill="#262524" transform="translate(975,810)"/>
<path d="M0 0 C1.26650391 0.00966797 1.26650391 0.00966797 2.55859375 0.01953125 C3.43128906 0.03628906 4.30398438 0.05304688 5.203125 0.0703125 C6.53537109 0.08384766 6.53537109 0.08384766 7.89453125 0.09765625 C10.08100558 0.12116673 12.26692594 0.15402751 14.453125 0.1953125 C14.453125 0.5253125 14.453125 0.8553125 14.453125 1.1953125 C8.843125 1.1953125 3.233125 1.1953125 -2.546875 1.1953125 C-2.546875 1.8553125 -2.546875 2.5153125 -2.546875 3.1953125 C-5.516875 2.7003125 -5.516875 2.7003125 -8.546875 2.1953125 C-5.55561181 0.47325062 -3.44001787 -0.04648673 0 0 Z " fill="#C0BDB6" transform="translate(836.546875,506.8046875)"/>
<path d="M0 0 C0.33 0 0.66 0 1 0 C1.33 4.29 1.66 8.58 2 13 C1.01 12.67 0.02 12.34 -1 12 C-1.08159574 7.83861737 -0.98248524 4.0527516 0 0 Z " fill="#DDD7CF" transform="translate(657,452)"/>
<path d="M0 0 C0.99 0.33 1.98 0.66 3 1 C1.02 3.31 -0.96 5.62 -3 8 C-3.99 7.67 -4.98 7.34 -6 7 C-4.02 4.69 -2.04 2.38 0 0 Z " fill="#E4DDD5" transform="translate(558,926)"/>
<path d="M0 0 C-1.55500981 3.81684226 -4.03595495 6.19195732 -7 9 C-7.99 8.67 -8.98 8.34 -10 8 C-8.71451591 6.66070495 -7.42141845 5.32871357 -6.125 4 C-5.04605469 2.88625 -5.04605469 2.88625 -3.9453125 1.75 C-2 0 -2 0 0 0 Z " fill="#E8E1D9" transform="translate(890,424)"/>
<path d="M0 0 C-1.5830577 4.2742558 -4.50568404 6.26531794 -8 9 C-8 6 -8 6 -6.7578125 4.39453125 C-5.94957031 3.61142578 -5.94957031 3.61142578 -5.125 2.8125 C-4.59132813 2.28269531 -4.05765625 1.75289062 -3.5078125 1.20703125 C-2 0 -2 0 0 0 Z " fill="#2B2A29" transform="translate(968,827)"/>
<path d="M0 0 C0.15082031 0.60585938 0.30164063 1.21171875 0.45703125 1.8359375 C0.85813713 3.4345897 1.26991216 5.03057372 1.6875 6.625 C1.8421875 7.800625 1.8421875 7.800625 2 9 C1.34 9.66 0.68 10.32 0 11 C-0.64767793 13.57061311 -0.64767793 13.57061311 -1 16 C-1.33 16 -1.66 16 -2 16 C-2.20674944 10.21101581 -1.59162079 5.57067277 0 0 Z " fill="#565350" transform="translate(517,941)"/>
<path d="M0 0 C0.66 0.66 1.32 1.32 2 2 C1.7578125 4.6015625 1.7578125 4.6015625 1.125 7.625 C0.81949219 9.12933594 0.81949219 9.12933594 0.5078125 10.6640625 C0.34023438 11.43492187 0.17265625 12.20578125 0 13 C-0.33 13 -0.66 13 -1 13 C-2.0070238 7.96488101 -1.97387813 4.76052962 0 0 Z " fill="#E1D9D0" transform="translate(313,442)"/>
<path d="M0 0 C0.66 0.33 1.32 0.66 2 1 C0.02 3.31 -1.96 5.62 -4 8 C-5.32 7.67 -6.64 7.34 -8 7 C-5.36 4.69 -2.72 2.38 0 0 Z " fill="#252422" transform="translate(445,675)"/>
<path d="M0 0 C0.66 0.33 1.32 0.66 2 1 C0.02 3.31 -1.96 5.62 -4 8 C-4.99 7.67 -5.98 7.34 -7 7 C-4.69 4.69 -2.38 2.38 0 0 Z " fill="#DDD6CD" transform="translate(327,424)"/>
<path d="M0 0 C0 0.66 0 1.32 0 2 C-2.31 2.66 -4.62 3.32 -7 4 C-7.66 3.34 -8.32 2.68 -9 2 C-5.62902617 0.50178941 -3.79557881 0 0 0 Z " fill="#1F1F1D" transform="translate(606,1005)"/>
<path d="M0 0 C0.66 0.33 1.32 0.66 2 1 C0.35 4.3 -1.3 7.6 -3 11 C-4.3968009 6.80959731 -2.86445675 4.87233324 -1 1 C-0.67 0.67 -0.34 0.34 0 0 Z " fill="#1E1D1B" transform="translate(676,811)"/>
<path d="M0 0 C2.96404505 2.80804268 5.44499019 5.18315774 7 9 C6.01 9 5.02 9 4 9 C0 3.85714286 0 3.85714286 0 0 Z " fill="#201F1D" transform="translate(437,553)"/>
<path d="M0 0 C2.29633824 3.44450737 2.54016485 5.93812283 3 10 C0.67527795 7.14693203 -0.7508258 4.45925163 -2 1 C-1.34 0.67 -0.68 0.34 0 0 Z " fill="#272624" transform="translate(522,989)"/>
<path d="M0 0 C0.66 0.33 1.32 0.66 2 1 C-1.17320782 4.53586014 -3.16743695 6.58578031 -8 7 C-5.42215154 4.35247996 -3.08351902 2.05567935 0 0 Z " fill="#E4DDD6" transform="translate(981,852)"/>
<path d="M0 0 C3.3 0.33 6.6 0.66 10 1 C9.67 1.66 9.34 2.32 9 3 C6.03 2.67 3.06 2.34 0 2 C0 1.34 0 0.68 0 0 Z " fill="#242221" transform="translate(782,791)"/>
<path d="M0 0 C0.66 1.32 1.32 2.64 2 4 C0.71937515 5.7074998 -0.61767557 7.37373596 -2 9 C-2.66 9 -3.32 9 -4 9 C-2.80100302 5.9168649 -1.52299523 2.93720508 0 0 Z " fill="#E4DDD3" transform="translate(391,765)"/>
<path d="M0 0 C0.99 0.66 1.98 1.32 3 2 C0.03 4.475 0.03 4.475 -3 7 C-3.66 6.34 -4.32 5.68 -5 5 C-3.35 3.35 -1.7 1.7 0 0 Z " fill="#242322" transform="translate(265,752)"/>
<path d="M0 0 C2.64752004 2.57784846 4.94432065 4.91648098 7 8 C6.01 8 5.02 8 4 8 C0 3.77142857 0 3.77142857 0 0 Z " fill="#252422" transform="translate(690,716)"/>
<path d="M0 0 C0.99 0.33 1.98 0.66 3 1 C-0.465 3.97 -0.465 3.97 -4 7 C-4 4 -4 4 -2 1.8125 C-1.34 1.214375 -0.68 0.61625 0 0 Z " fill="#1B1B1A" transform="translate(413,704)"/>
<path d="M0 0 C2.64 0.99 5.28 1.98 8 3 C6.3125 4.125 6.3125 4.125 4 5 C1.25 4.125 1.25 4.125 -1 3 C-0.67 2.01 -0.34 1.02 0 0 Z " fill="#262524" transform="translate(591,672)"/>
<path d="M0 0 C0.66 0.99 1.32 1.98 2 3 C-0.97 5.475 -0.97 5.475 -4 8 C-4 4.09161134 -2.49432124 2.88405893 0 0 Z " fill="#E4DDD4" transform="translate(695,340)"/>
<path d="M0 0 C0.66 0 1.32 0 2 0 C2.66 2.97 3.32 5.94 4 9 C3.01 8.67 2.02 8.34 1 8 C0.67 5.36 0.34 2.72 0 0 Z " fill="#383632" transform="translate(542,969)"/>
<path d="M0 0 C0.66 0.66 1.32 1.32 2 2 C0.35 3.65 -1.3 5.3 -3 7 C-3.66 6.67 -4.32 6.34 -5 6 C-2.25 1.125 -2.25 1.125 0 0 Z " fill="#EFE6DB" transform="translate(289,769)"/>
<path d="M0 0 C0.66 0.33 1.32 0.66 2 1 C0.35 2.98 -1.3 4.96 -3 7 C-3.99 6.67 -4.98 6.34 -6 6 C-4.02 4.02 -2.04 2.04 0 0 Z " fill="#DCD6D0" transform="translate(608,257)"/>
<path d="M0 0 C2.97 0.33 5.94 0.66 9 1 C5.5647952 3.29013653 4.014669 3.17842973 0 3 C0 2.01 0 1.02 0 0 Z " fill="#E3DDD4" transform="translate(773,791)"/>
<path d="M0 0 C0 4.31618166 -2.13270348 5.92789659 -5 9 C-5.66 9 -6.32 9 -7 9 C-5.44499019 5.18315774 -2.96404505 2.80804268 0 0 Z " fill="#DBD8D1" transform="translate(415,737)"/>
<path d="M0 0 C0 0.66 0 1.32 0 2 C-2.30276574 4.21747812 -3.52480092 4.96760006 -6.75 5.1875 C-7.86375 5.0946875 -7.86375 5.0946875 -9 5 C-2.87096774 0 -2.87096774 0 0 0 Z " fill="#2C2C2A" transform="translate(900,730)"/>
<path d="M0 0 C0.99 0.33 1.98 0.66 3 1 C1.35 2.65 -0.3 4.3 -2 6 C-2.33 5.01 -2.66 4.02 -3 3 C-2.01 2.01 -1.02 1.02 0 0 Z " fill="#252423" transform="translate(538,907)"/>
<path d="M0 0 C2.64 0.33 5.28 0.66 8 1 C8 1.66 8 2.32 8 3 C5.36 2.67 2.72 2.34 0 2 C0 1.34 0 0.68 0 0 Z " fill="#282725" transform="translate(829,799)"/>
<path d="M0 0 C3.125 0.375 3.125 0.375 6 1 C3 3 3 3 0.3125 2.625 C-0.450625 2.41875 -1.21375 2.2125 -2 2 C-1.34 1.34 -0.68 0.68 0 0 Z M6 0 C10 1 10 1 10 1 Z " fill="#DED7CF" transform="translate(912,754)"/>
<path d="M0 0 C0.99 0.33 1.98 0.66 3 1 C1.25 3.0625 1.25 3.0625 -1 5 C-3.25 4.75 -3.25 4.75 -5 4 C-2.6875 1.9375 -2.6875 1.9375 0 0 Z " fill="#E1DACF" transform="translate(445,710)"/>
<path d="M0 0 C0.66 0.33 1.32 0.66 2 1 C-1.5 5.875 -1.5 5.875 -6 7 C-4.02 4.69 -2.04 2.38 0 0 Z " fill="#262523" transform="translate(462,660)"/>
<path d="M0 0 C0.99 0.33 1.98 0.66 3 1 C2.01 1.33 1.02 1.66 0 2 C-0.73323796 4.01508358 -0.73323796 4.01508358 -1 6 C-1.99 5.67 -2.98 5.34 -4 5 C-2.68 3.35 -1.36 1.7 0 0 Z " fill="#E2DCD4" transform="translate(982,510)"/>
<path d="M0 0 C1 3 1 3 -0.3125 5.6875 C-0.869375 6.450625 -1.42625 7.21375 -2 8 C-2.66 8 -3.32 8 -4 8 C-2.87548273 5.0280615 -1.77706209 2.66559313 0 0 Z " fill="#E5DFD7" transform="translate(879,434)"/>
</svg>
